<svg width="51" height="50" viewBox="0 0 51 50" fill="none" xmlns="http://www.w3.org/2000/svg">
<g clip-path="url(#clip0_5042_138022)">
<path d="M19.7902 35.8816C17.3368 34.7032 16.2596 31.8358 17.3879 29.4867L20.0271 23.9917L17.3011 22.6824L14.6619 28.1774C12.8408 31.969 14.5767 36.5897 18.5366 38.4917C22.4965 40.3936 27.1883 38.86 29.0093 35.0685L31.6486 29.5735L28.9226 28.2642L26.2833 33.7592C25.1551 36.1083 22.2436 37.0599 19.7902 35.8816ZM23.9302 30.9383L29.2086 19.9484L26.3391 18.5701L21.0607 29.5601L23.9302 30.9383ZM21.2599 14.44L18.6207 19.935L21.3467 21.2443L23.986 15.7493C25.1142 13.4002 28.0257 12.4485 30.4791 13.6269C32.9325 14.8053 34.0097 17.6726 32.8814 20.0217L30.2422 25.5167L32.9682 26.826L35.6074 21.331C37.4285 17.5395 35.6926 12.9187 31.7327 11.0168C27.7728 9.11486 23.081 10.6484 21.2599 14.44Z" fill="black"/>
</g>
<defs>
<clipPath id="clip0_5042_138022">
<rect width="36.5755" height="38.1997" fill="white" transform="translate(0 32.9698) rotate(-64.3451)"/>
</clipPath>
</defs>
</svg>
